<svg xmlns="http://www.w3.org/2000/svg" xmlns:xlink="http://www.w3.org/1999/xlink" width="500" zoomAndPan="magnify" viewBox="0 0 375 374.999991" height="500" preserveAspectRatio="xMidYMid meet" version="1.0"><defs><g/></defs><g fill="#25de21" fill-opacity="0.302"><g transform="translate(51.666567, 224.315601)"><g><path d="M 24.84375 0.578125 L 23.484375 0.5 L 22.203125 0.21875 L 20.765625 -0.28125 L 19.484375 -0.578125 L 16.28125 -1.921875 L 13.203125 -3.5625 L 10 -6.359375 L 7.0625 -9.5 L 4 -15.703125 L 3 -19.765625 L 2.5625 -24.984375 L 3.28125 -31.125 L 4 -34.046875 L 5.78125 -38.046875 L 7.140625 -40.109375 L 9.0625 -42.546875 L 12.140625 -45.328125 L 14.203125 -46.890625 L 19.484375 -49.390625 L 26.40625 -50.75 L 30.828125 -50.671875 L 32.265625 -50.46875 L 33.625 -50.390625 L 40.46875 -48.109375 L 45.328125 -45.03125 L 47.328125 -42.96875 L 48.109375 -41.609375 L 49.109375 -40.390625 L 49.75 -39.25 L 50.53125 -38.109375 L 50.96875 -36.609375 L 51.46875 -35.328125 L 51.890625 -33.765625 L 51.390625 -32.328125 L 50.171875 -31.765625 L 48.03125 -31.546875 L 46.03125 -31.765625 L 44.609375 -31.6875 L 43.109375 -31.765625 L 41.828125 -31.625 L 40.1875 -32.40625 L 38.828125 -33.765625 L 38.046875 -34.828125 L 35.96875 -36.90625 L 34.96875 -37.6875 L 33.6875 -38.1875 L 31.46875 -38.828125 L 28.40625 -38.96875 L 23.625 -38.328125 L 21.703125 -37.25 L 19.984375 -35.90625 L 18.265625 -33.90625 L 17.5625 -32.546875 L 16.484375 -29.984375 L 15.984375 -27.125 L 15.984375 -22.765625 L 16.203125 -21.203125 L 16.5625 -19.90625 L 17.0625 -18.921875 L 17.5625 -17.484375 L 19.125 -14.984375 L 21.203125 -13.140625 L 23.703125 -11.84375 L 26.265625 -10.921875 L 28.328125 -10.703125 L 32.125 -10.921875 L 34.609375 -12.28125 L 35.6875 -12.703125 L 36.828125 -13.703125 L 38.46875 -15.5625 L 39.1875 -16.921875 L 40.328125 -18.0625 L 41.96875 -18.921875 L 43.390625 -18.84375 L 44.828125 -18.921875 L 46.25 -18.703125 L 50.25 -18.984375 L 51.671875 -18.0625 L 52.109375 -16.765625 L 50.25 -11.34375 L 48.75 -8.78125 L 47.109375 -6.640625 L 45.109375 -4.640625 L 41.609375 -2.140625 L 40.390625 -1.5625 L 38.90625 -1.078125 L 37.609375 -0.359375 L 33.40625 0.5 L 28.40625 0.859375 Z M 45.46875 -30.125 L 47.75 -30.125 L 49.25 -29.984375 L 51.953125 -30.046875 L 53.453125 -30.984375 L 53.953125 -32.1875 L 53.609375 -33.6875 L 52.03125 -38.046875 L 51.390625 -39.25 L 51.171875 -39.96875 L 51.890625 -39.546875 L 52.75 -38.75 L 55.25 -34.90625 L 55.75 -33.625 L 56.453125 -32.265625 L 56.671875 -30.90625 L 56.453125 -29.328125 L 55.75 -27.984375 L 54.3125 -27.34375 L 51.953125 -27.1875 L 50.390625 -27.34375 L 47.171875 -27.046875 L 45.6875 -27.125 L 44.109375 -27.84375 L 43.53125 -29.40625 Z M 17.484375 -24.046875 L 17.703125 -26.984375 L 17.984375 -28.265625 L 18.484375 -29.765625 L 19.703125 -32.1875 L 20.703125 -33.546875 L 21.5625 -34.40625 L 23.90625 -36.109375 L 26.546875 -37.109375 L 27.765625 -37.328125 L 30.125 -37.328125 L 32.546875 -36.90625 L 34.125 -36.046875 L 34.265625 -35.328125 L 30.125 -35.046875 L 27.046875 -34.46875 L 25.84375 -34.046875 L 24.703125 -33.328125 L 22.625 -31.46875 L 21.84375 -30.265625 L 19.984375 -26.40625 L 19.703125 -24.90625 L 19.5625 -19.0625 L 19.0625 -18.921875 L 18.265625 -20.265625 L 17.765625 -21.84375 Z M 27.546875 2.421875 L 29.984375 2.28125 L 31.40625 2.421875 L 33.046875 2.421875 L 36.40625 1.859375 L 37.96875 1.421875 L 39.1875 0.78125 L 40.609375 0.359375 L 41.828125 -0.421875 L 43.25 -1.078125 L 47.609375 -4.421875 L 50.53125 -7.703125 L 52.453125 -11.640625 L 52.890625 -13.140625 L 54.03125 -14.421875 L 55.453125 -14.484375 L 55.953125 -12.78125 L 55.671875 -11.5625 L 55.171875 -10.203125 L 53.953125 -7.640625 L 52.390625 -5 L 51.3125 -3.921875 L 50.46875 -2.859375 L 49.46875 -1.859375 L 46.109375 0.921875 L 42.1875 2.859375 L 40.6875 3.140625 L 37.90625 4.0625 L 36.609375 4.0625 L 31.625 4.703125 L 29.328125 4.421875 L 27.84375 4.5 L 26.484375 4.28125 L 25.203125 3.921875 L 23.765625 3.78125 L 22.40625 3.359375 L 21.34375 2.640625 L 20.703125 2.359375 L 22.265625 1.921875 Z M 27.546875 2.421875 "/></g></g></g><g fill="#25de21" fill-opacity="0.302"><g transform="translate(106.120326, 224.315601)"><g><path d="M 0.921875 -1.921875 L 1.78125 -4.921875 L 2.421875 -6.359375 L 3.28125 -7.5 L 5.359375 -12.703125 L 7.359375 -16.421875 L 7.84375 -17.84375 L 8.5 -18.984375 L 8.921875 -20.484375 L 9.921875 -22.34375 L 10.421875 -23.703125 L 11.484375 -25.546875 L 12.640625 -28.125 L 13.421875 -29.40625 L 13.78125 -30.625 L 17.765625 -39.609375 L 18.5625 -40.890625 L 21.625 -47.328125 L 22.0625 -48.609375 L 23.40625 -49.890625 L 25.6875 -50.609375 L 28.125 -49.96875 L 29.40625 -48.609375 L 29.828125 -47.25 L 30.484375 -46.171875 L 31.625 -43.46875 L 33.046875 -40.828125 L 34.125 -38.328125 L 34.46875 -37.1875 L 35.765625 -34.46875 L 36.1875 -33.125 L 37.609375 -30.625 L 37.96875 -29.265625 L 38.6875 -28.046875 L 39.25 -26.84375 L 40.046875 -25.546875 L 40.46875 -24.125 L 41.109375 -23.046875 L 41.609375 -21.625 L 42.25 -20.40625 L 42.828125 -18.984375 L 43.609375 -17.84375 L 44.609375 -15.203125 L 45.328125 -13.984375 L 45.828125 -12.640625 L 47.03125 -10.0625 L 47.46875 -8.703125 L 48.171875 -7.640625 L 48.609375 -6.203125 L 49.53125 -5 L 50.03125 -3.71875 L 50.46875 -1.921875 L 50.171875 -0.421875 L 48.890625 0 L 44.46875 0.140625 L 41.96875 -0.078125 L 40.6875 0.078125 L 38.828125 -0.640625 L 37.609375 -1.78125 L 36.828125 -3.0625 L 36.46875 -4.359375 L 34.96875 -5.5 L 32.625 -6.28125 L 29.265625 -6.140625 L 27.765625 -6.28125 L 26.484375 -6.28125 L 24.84375 -6.0625 L 23.34375 -6.28125 L 19.34375 -6.203125 L 17.921875 -6.359375 L 16.203125 -5.640625 L 14.984375 -4.28125 L 13.78125 -1.859375 L 12.484375 -0.578125 L 10.84375 0.140625 L 9 -0.078125 L 2.71875 -0.078125 L 1.28125 -0.421875 Z M 34.90625 -45.25 L 36.1875 -44.03125 L 37.328125 -41.328125 L 38.046875 -40.1875 L 38.546875 -38.6875 L 39.6875 -36.1875 L 40.546875 -34.90625 L 40.96875 -33.6875 L 41.75 -32.40625 L 42.109375 -31.046875 L 44.03125 -27.34375 L 45.03125 -24.546875 L 45.75 -23.265625 L 46.171875 -22.0625 L 46.96875 -20.90625 L 47.46875 -19.484375 L 49.3125 -15.5625 L 50.171875 -14.421875 L 51.671875 -10.34375 L 53.75 -6.703125 L 54.109375 -5.359375 L 54.8125 -4.0625 L 55.8125 0 L 55.890625 1.921875 L 54.8125 4.140625 L 52.671875 4.78125 L 51.3125 4.78125 L 49.8125 4.640625 L 43.46875 4.640625 L 41.609375 4.0625 L 41.109375 2.5 L 42.046875 1.859375 L 47.828125 1.921875 L 49.3125 1.78125 L 50.671875 1.859375 L 52.171875 1.140625 L 52.75 0 L 51.890625 -3.71875 L 51.171875 -5.140625 L 50.8125 -6.359375 L 49.96875 -7.703125 L 49.671875 -9 L 48.171875 -11.5625 L 47.75 -12.984375 L 44.75 -19.40625 L 43.96875 -20.5625 L 42.390625 -24.625 L 41.75 -25.84375 L 41.25 -27.046875 L 40.46875 -28.40625 L 40.046875 -29.828125 L 39.46875 -30.984375 L 38.6875 -32.125 L 37.96875 -33.46875 L 37.6875 -34.90625 L 33.265625 -43.890625 L 33.40625 -45.328125 Z M 22.984375 -17.625 L 28.546875 -17.703125 L 29.765625 -18.265625 L 29.90625 -19.5625 L 29.40625 -20.84375 L 28.6875 -22.265625 L 28.40625 -23.40625 L 27.625 -24.625 L 26.6875 -27.40625 L 25.84375 -27.984375 L 24.90625 -27.265625 L 24.265625 -26.125 L 21.40625 -19.625 L 21.625 -18.203125 Z M 23.84375 -20.625 L 24.203125 -22.125 L 24.90625 -23.484375 L 26.1875 -24.046875 L 26.84375 -21.984375 L 25.765625 -19.5625 L 24.203125 -19.203125 Z M 3.5625 3.21875 L 4.421875 2.21875 L 5.921875 1.859375 L 7.5625 1.921875 L 8.84375 1.78125 L 11.640625 1.921875 L 13.5625 1.28125 L 14.78125 0.078125 L 15.921875 -2.5625 L 17.265625 -3.859375 L 18.984375 -4.421875 L 20.5625 -4.5 L 23.484375 -4.359375 L 25.046875 -4.5 L 26.984375 -4.359375 L 30.6875 -4.5 L 32.046875 -4.421875 L 33.96875 -3.78125 L 34.46875 -2.21875 L 33.40625 -1.640625 L 30.625 -1.640625 L 29.40625 -1.5 L 27.84375 -1.71875 L 20.703125 -1.640625 L 19.203125 -0.859375 L 17.765625 0.21875 L 16.5625 2.921875 L 15.34375 4.0625 L 13.625 4.78125 L 12.140625 4.859375 L 10.34375 4.640625 L 5.359375 4.703125 L 4.0625 4.359375 Z M 3.5625 3.21875 "/></g></g></g><g fill="#25de21" fill-opacity="0.302"><g transform="translate(157.933473, 224.315601)"><g><path d="M 5.5 -2.28125 L 5.28125 -7.84375 L 5.421875 -9.34375 L 5.140625 -13.484375 L 5.359375 -16.421875 L 5.140625 -17.984375 L 5.203125 -20.703125 L 5.359375 -22.203125 L 5.359375 -25.765625 L 5.140625 -27.84375 L 5.359375 -47.828125 L 5.921875 -49.3125 L 7.28125 -49.96875 L 8.84375 -49.890625 L 10.203125 -50.109375 L 13.140625 -49.8125 L 14.484375 -50.03125 L 18.765625 -49.890625 L 19.984375 -50.03125 L 21.5625 -49.890625 L 22.984375 -50.03125 L 24.546875 -49.96875 L 26.625 -50.03125 L 28.40625 -49.890625 L 34.328125 -48.671875 L 36.828125 -47.390625 L 40.390625 -44.6875 L 41.046875 -43.609375 L 42.046875 -42.546875 L 43.96875 -38.609375 L 44.328125 -37.1875 L 44.53125 -35.828125 L 44.890625 -34.46875 L 44.828125 -28.828125 L 44.03125 -26.125 L 43.53125 -24.90625 L 42.75 -23.625 L 42.25 -22.265625 L 41.390625 -21.0625 L 39.40625 -19.125 L 38.609375 -17.625 L 38.828125 -15.921875 L 40.96875 -12.203125 L 41.890625 -11.0625 L 42.609375 -9.78125 L 43.46875 -8.5 L 44.109375 -7.28125 L 46.390625 -3.78125 L 47.328125 -2 L 47.03125 -0.5 L 45.53125 -0.140625 L 43.96875 0 L 41.109375 0 L 39.6875 -0.140625 L 38.109375 0 L 35.546875 -0.140625 L 33.765625 -0.578125 L 32.328125 -1.859375 L 31.46875 -3 L 30.828125 -4.21875 L 29.90625 -5.5625 L 27.90625 -9.140625 L 27.40625 -10.484375 L 25.546875 -12.984375 L 24.40625 -14.203125 L 22.625 -14.78125 L 21.34375 -14.703125 L 20.0625 -14.703125 L 18.625 -13.984375 L 17.984375 -12.5625 L 18.125 -8.140625 L 17.921875 -5.0625 L 18.203125 -3.5625 L 18.0625 -2.0625 L 17.5625 -0.71875 L 15.34375 0 L 13.203125 0 L 11.703125 -0.140625 L 8.78125 0.078125 L 7.421875 0 L 6 -0.71875 Z M 20.0625 -26.265625 L 21.625 -26.265625 L 23.046875 -26.046875 L 28.625 -26.546875 L 29.6875 -27.046875 L 30.546875 -27.90625 L 31.328125 -29.125 L 31.90625 -30.546875 L 32.125 -32.46875 L 31.96875 -34.546875 L 31.46875 -35.6875 L 30.765625 -36.765625 L 28.546875 -38.109375 L 25.265625 -38.546875 L 21.34375 -38.609375 L 20.203125 -38.546875 L 18.765625 -37.828125 L 17.921875 -36.40625 L 18.125 -28.40625 L 18.84375 -26.90625 Z M 47.109375 -37.046875 L 47.671875 -35.765625 L 48.171875 -34.546875 L 48.828125 -33.328125 L 49.46875 -30.484375 L 49.171875 -28.40625 L 49.109375 -26.34375 L 48.46875 -23.484375 L 45.53125 -18.484375 L 45.109375 -16.84375 L 45.46875 -15.125 L 47.390625 -11.203125 L 48.328125 -10.0625 L 48.890625 -8.703125 L 50.46875 -6.203125 L 51.671875 -3 L 52.171875 -0.71875 L 51.953125 1.640625 L 50.46875 3.78125 L 48.671875 4.5 L 47.109375 4.5625 L 45.828125 4.421875 L 43.6875 4.640625 L 40.609375 4.5 L 38.109375 3.78125 L 37.46875 2.5 L 38.40625 1.71875 L 47.03125 1.78125 L 48.390625 1.078125 L 49.109375 -0.5 L 49.03125 -2.5 L 48.25 -4.5 L 47.609375 -5.5625 L 46.75 -6.859375 L 46.171875 -8.140625 L 43.6875 -11.703125 L 43.109375 -12.984375 L 42.546875 -14.125 L 41.6875 -15.34375 L 41.25 -16.984375 L 41.96875 -18.703125 L 43.03125 -19.703125 L 43.96875 -20.765625 L 45.25 -23.125 L 46.53125 -27.125 L 46.828125 -28.546875 L 46.890625 -33.96875 L 46.671875 -35.40625 L 46.25 -36.6875 L 46.53125 -37.546875 Z M 19.90625 -30.1875 L 19.90625 -34.6875 L 20.5625 -35.96875 L 22.0625 -36.828125 L 26.1875 -36.765625 L 28.265625 -36.265625 L 29.546875 -35.46875 L 29.765625 -34.328125 L 28.6875 -33.96875 L 25.203125 -34.046875 L 23.484375 -33.265625 L 22.125 -28.765625 L 20.5625 -28.90625 Z M 10.640625 2.421875 L 12.0625 1.71875 L 17.84375 1.78125 L 19.203125 1 L 19.90625 -1.21875 L 19.765625 -3.421875 L 19.84375 -4.921875 L 19.765625 -6.28125 L 19.984375 -7.84375 L 19.90625 -10 L 20.484375 -12.28125 L 21.703125 -12.921875 L 23.265625 -12.140625 L 24.125 -10.78125 L 22.765625 -8.0625 L 22.546875 2.421875 L 21.984375 3.78125 L 19.765625 4.5 L 12.0625 4.5625 L 10.640625 3.859375 Z M 10.640625 2.421875 "/></g></g></g><g fill="#25de21" fill-opacity="0.302"><g transform="translate(207.391477, 224.315601)"><g><path d="M 5.359375 -2.0625 L 5.203125 -3.5625 L 5.5 -4.921875 L 5.359375 -6.359375 L 5.421875 -15.0625 L 5.28125 -16.34375 L 5.203125 -19.203125 L 5.421875 -20.625 L 5.203125 -23.484375 L 5.421875 -24.84375 L 5.203125 -27.90625 L 5.421875 -29.265625 L 5.28125 -30.6875 L 5.5 -31.96875 L 5.28125 -33.46875 L 5.421875 -34.90625 L 5.359375 -36.265625 L 5.5625 -37.828125 L 5.421875 -39.1875 L 5.203125 -40.609375 L 5.421875 -42.109375 L 5.5625 -43.46875 L 5.140625 -47.171875 L 6.0625 -49.109375 L 8.140625 -49.890625 L 15.5625 -50.03125 L 17.421875 -49.171875 L 18.125 -47.03125 L 18.265625 -43.53125 L 18.125 -41.96875 L 18.34375 -30.828125 L 18.125 -29.328125 L 18.34375 -27.765625 L 18.125 -25.765625 L 18.203125 -22.203125 L 18.0625 -20.703125 L 18.203125 -19.265625 L 18.125 -17.703125 L 18.34375 -16.34375 L 18.265625 -13.703125 L 18.703125 -12.140625 L 20.203125 -11.484375 L 32.765625 -11.34375 L 34.328125 -11.5625 L 35.46875 -10.84375 L 36.40625 -9.28125 L 36.1875 -7.921875 L 36.40625 -6.359375 L 36.265625 -5.0625 L 36.1875 -3.640625 L 36.328125 -2.0625 L 35.546875 -0.78125 L 33.546875 -0.078125 L 8.28125 0.078125 L 6 -0.78125 Z M 20.125 -15.421875 L 20.125 -16.921875 L 19.90625 -18.265625 L 20.125 -19.765625 L 19.984375 -37.25 L 19.84375 -38.75 L 20.125 -40.109375 L 20.125 -43.109375 L 20.703125 -44.53125 L 22.125 -44.46875 L 23.046875 -43.109375 L 22.703125 -37.1875 L 22.90625 -35.765625 L 22.84375 -29.90625 L 23.046875 -26.90625 L 22.84375 -25.484375 L 22.84375 -21.84375 L 23.046875 -20.5625 L 23.046875 -16.703125 L 22.90625 -15.421875 L 22.265625 -13.921875 L 20.765625 -13.84375 Z M 10.78125 2.640625 L 12.78125 1.859375 L 17.84375 1.859375 L 19.0625 1.71875 L 24.203125 2 L 26.265625 1.859375 L 33.1875 2 L 35.90625 1.78125 L 37.546875 1.140625 L 38.25 -0.21875 L 38.109375 -1.640625 L 38.328125 -3.0625 L 38.109375 -4.640625 L 38.96875 -6.140625 L 40.546875 -6.140625 L 41.109375 -4.640625 L 40.96875 2.5 L 40.390625 4 L 38.828125 4.703125 L 26.90625 4.859375 L 25.40625 4.703125 L 23.984375 4.859375 L 11.984375 4.640625 L 10.78125 3.859375 Z M 10.78125 2.640625 "/></g></g></g><g fill="#25de21" fill-opacity="0.302"><g transform="translate(245.787442, 224.315601)"><g><path d="M 26.6875 0.859375 L 25.203125 0.71875 L 22.625 0.140625 L 21.0625 0 L 18.984375 -0.71875 L 13.421875 -3.5625 L 11.0625 -5.421875 L 10.28125 -6.359375 L 9.203125 -7.359375 L 8.28125 -8.5 L 7.421875 -9.34375 L 4.140625 -15.84375 L 3.5 -18.5625 L 3.359375 -19.90625 L 3 -21.203125 L 2.78125 -22.703125 L 3 -28.484375 L 4.21875 -33.96875 L 5.28125 -36.6875 L 7.5 -40.46875 L 10.984375 -44.53125 L 13.421875 -46.328125 L 14.703125 -46.96875 L 15.78125 -47.75 L 21.125 -49.75 L 28.6875 -50.8125 L 30.625 -50.75 L 34.765625 -50.03125 L 40.25 -48.328125 L 41.328125 -47.53125 L 43.46875 -46.609375 L 45.109375 -45.46875 L 47.171875 -43.6875 L 49.171875 -41.46875 L 50.75 -39.328125 L 52.109375 -36.6875 L 53.890625 -31.328125 L 54.390625 -28.40625 L 54.609375 -24.84375 L 54.3125 -22.765625 L 54.25 -21.265625 L 53.890625 -19.84375 L 53.8125 -18.5625 L 53.25 -15.84375 L 52.171875 -13.140625 L 49.03125 -8.34375 L 48.03125 -7.359375 L 47.109375 -6.0625 L 45.109375 -4.359375 L 43.75 -3.71875 L 42.6875 -2.859375 L 40.328125 -1.5625 L 34.96875 0.21875 L 30.6875 0.78125 Z M 30.6875 -11.78125 L 32.125 -12.0625 L 33.1875 -12.5625 L 34.46875 -12.921875 L 37.90625 -15.28125 L 38.90625 -16.421875 L 39.328125 -17.484375 L 40.109375 -18.765625 L 40.609375 -20.0625 L 41.1875 -22.703125 L 41.328125 -27.046875 L 41.109375 -28.328125 L 40.46875 -29.6875 L 39.609375 -32.40625 L 36.828125 -35.328125 L 34.609375 -36.90625 L 33.328125 -37.46875 L 32.046875 -37.75 L 28.625 -38.1875 L 26.625 -38.046875 L 23.84375 -37.328125 L 22.90625 -36.96875 L 19.34375 -34.546875 L 17.625 -32.265625 L 17.203125 -30.984375 L 16.625 -29.6875 L 16.421875 -28.328125 L 16.0625 -27.046875 L 16.0625 -22.703125 L 16.625 -20.0625 L 17.265625 -18.765625 L 17.625 -17.625 L 18.625 -16.28125 L 19.5625 -15.28125 L 21.484375 -13.703125 L 22.625 -13.0625 L 25.203125 -11.984375 L 26.765625 -11.78125 Z M 18.125 -23.625 L 18.265625 -25.765625 L 19.0625 -29.828125 L 20.5625 -32.1875 L 21.703125 -33.328125 L 23.984375 -35.046875 L 25.203125 -35.609375 L 26.484375 -35.96875 L 28.40625 -36.046875 L 29.546875 -36.265625 L 31.96875 -35.828125 L 34.40625 -34.46875 L 33.1875 -34.265625 L 31.96875 -34.1875 L 29.90625 -34.046875 L 28.546875 -33.765625 L 27.125 -33.328125 L 25.265625 -32.40625 L 23.765625 -31.125 L 21.90625 -28.90625 L 20.625 -25.203125 L 20.0625 -21.5625 L 20.125 -19.125 L 19.703125 -18.203125 L 18.703125 -20.625 Z M 55.953125 -26.625 L 55.53125 -31.625 L 55.8125 -32.328125 L 56.25 -31.6875 L 57.453125 -27.625 L 57.453125 -26.34375 L 57.953125 -24.84375 L 57.890625 -23.546875 L 57.953125 -21.34375 L 57.671875 -16.34375 L 57.171875 -14.921875 L 56.75 -11.984375 L 54.953125 -8.140625 L 52.609375 -4.421875 L 51.46875 -3.5 L 50.46875 -2.28125 L 48.328125 -0.421875 L 44.46875 1.71875 L 43.46875 2.421875 L 42.046875 2.71875 L 40.046875 3.5 L 34.96875 4.359375 L 29.828125 4.28125 L 26.484375 3.859375 L 25.125 3.359375 L 22.40625 2.78125 L 21.84375 2.0625 L 22.625 1.921875 L 24.203125 2.21875 L 30.125 2.5 L 34.96875 2.140625 L 39.109375 1.140625 L 40.390625 0.640625 L 42.96875 -0.640625 L 44.03125 -1.359375 L 45.46875 -1.921875 L 47.609375 -3.5625 L 49.609375 -5.5625 L 53.171875 -10.34375 L 55.53125 -16.84375 L 55.59375 -18.421875 L 55.953125 -19.90625 L 56.25 -24.046875 Z M 56.3125 -22.90625 L 56.390625 -23.125 L 56.09375 -22.546875 Z M 56.3125 -22.90625 "/></g></g></g><g fill="#25de21" fill-opacity="0.302"><g transform="translate(303.024566, 224.315601)"><g><path d="M 20.703125 0.578125 L 17.703125 0.359375 L 16.34375 -0.140625 L 14.78125 -0.359375 L 9.640625 -2.71875 L 8.421875 -3.5 L 6.359375 -5.5625 L 4.5625 -7.78125 L 3.421875 -10.640625 L 3.140625 -11.921875 L 3 -13.484375 L 3.5 -14.984375 L 4.921875 -15.625 L 6.359375 -15.5625 L 7.78125 -15.703125 L 13.203125 -15.5625 L 14.625 -14.984375 L 15.703125 -13.5625 L 16.765625 -12.5625 L 18.0625 -11.78125 L 19.125 -11.28125 L 20.765625 -10.84375 L 22.90625 -10.703125 L 24.90625 -10.78125 L 27.546875 -11.5625 L 28.6875 -12.203125 L 29.828125 -13.203125 L 30.265625 -15.0625 L 29.90625 -16.921875 L 28.90625 -17.765625 L 26.34375 -18.84375 L 24.90625 -18.921875 L 23.625 -19.125 L 17.765625 -19.5625 L 15.203125 -20.125 L 11.140625 -21.484375 L 8.640625 -22.984375 L 6.640625 -24.84375 L 4.859375 -27.1875 L 3.921875 -29.6875 L 3.421875 -31.6875 L 3.359375 -36.46875 L 4.359375 -40.609375 L 5.0625 -41.75 L 5.5625 -43.03125 L 6.5 -43.96875 L 7.28125 -45.1875 L 8.5625 -46.03125 L 9.5625 -46.96875 L 10.984375 -47.828125 L 12.140625 -48.25 L 13.28125 -48.96875 L 14.5625 -49.46875 L 20.203125 -50.609375 L 24.203125 -50.671875 L 25.765625 -50.3125 L 27.046875 -50.171875 L 28.546875 -49.890625 L 32.46875 -48.53125 L 37.046875 -45.390625 L 37.96875 -44.328125 L 38.6875 -43.1875 L 39.609375 -42.046875 L 40.75 -39.46875 L 41.328125 -36.6875 L 40.6875 -35.328125 L 39.328125 -34.46875 L 37.96875 -34.609375 L 36.6875 -34.46875 L 31.96875 -34.609375 L 29.765625 -35.328125 L 27.40625 -37.828125 L 26.34375 -38.6875 L 24.765625 -39.25 L 20.203125 -39.109375 L 18.921875 -38.828125 L 17.921875 -38.40625 L 16.703125 -37.46875 L 15.921875 -36.46875 L 15.703125 -34.609375 L 15.78125 -32.6875 L 16.921875 -31.546875 L 17.984375 -30.984375 L 20.984375 -29.90625 L 28.1875 -28.984375 L 34.046875 -27.546875 L 37.828125 -25.84375 L 39.046875 -24.84375 L 40.75 -22.625 L 42.1875 -19.984375 L 42.546875 -18.625 L 42.75 -17.203125 L 42.6875 -12.78125 L 42.46875 -11.484375 L 42.046875 -10.0625 L 41.46875 -8.78125 L 40.046875 -6.5 L 38.046875 -4.21875 L 35.765625 -2.640625 L 32.046875 -0.640625 L 25.046875 0.71875 L 22.765625 0.78125 Z M 35.546875 -32.765625 L 39.328125 -32.6875 L 40.96875 -32.765625 L 42.46875 -33.546875 L 43.03125 -34.828125 L 43.109375 -36.1875 L 42.609375 -39.109375 L 42.046875 -41.046875 L 42.6875 -40.609375 L 44.390625 -37.96875 L 45.03125 -36.46875 L 45.25 -35.109375 L 45.109375 -33.546875 L 45.1875 -32.1875 L 44.109375 -30.6875 L 41.75 -29.828125 L 36.609375 -29.828125 L 35.40625 -30.046875 L 33.765625 -30.828125 L 33.46875 -32.1875 Z M 17.984375 -35.828125 L 18.984375 -36.6875 L 20.484375 -37.1875 L 21.84375 -37.40625 L 24.046875 -37.328125 L 26.125 -36.828125 L 27.046875 -36.046875 L 26.125 -35.46875 L 22.84375 -34.96875 L 21.484375 -34.609375 L 20.40625 -33.90625 L 18.921875 -33.328125 L 17.921875 -34.125 Z M 15.0625 0.921875 L 16.484375 1.5 L 22.40625 2.421875 L 26.84375 2.421875 L 29.40625 2.140625 L 30.828125 1.5625 L 32.328125 1.21875 L 37.328125 -1.21875 L 38.40625 -2.0625 L 39.328125 -3 L 40.390625 -3.859375 L 41.25 -4.921875 L 42.390625 -6 L 43.25 -7.28125 L 43.609375 -8.421875 L 44.109375 -9.703125 L 44.609375 -11.28125 L 44.53125 -16.703125 L 44.328125 -18.0625 L 44.03125 -19.265625 L 44.109375 -20.125 L 44.6875 -19.703125 L 45.390625 -18.484375 L 46.609375 -14.5625 L 46.75 -13.203125 L 46.609375 -9.0625 L 46.390625 -7.703125 L 45.1875 -5.203125 L 43.6875 -2.78125 L 42.828125 -1.640625 L 39.546875 1.078125 L 38.328125 1.78125 L 32.96875 3.921875 L 31.546875 4.28125 L 30.125 4.359375 L 28.828125 4.640625 L 22.90625 4.421875 L 18.765625 3.5625 L 17.625 2.921875 L 16.0625 2.21875 L 14.921875 1.5 L 14.34375 0.859375 Z M 23.203125 -14.5625 L 20.484375 -14.984375 L 15.0625 -16.703125 L 13.703125 -17.34375 L 11.484375 -18.765625 L 10.984375 -19.40625 L 11.703125 -19.5625 L 14.203125 -18.625 L 18.34375 -17.84375 L 19.765625 -17.84375 L 21.0625 -17.5625 L 25.765625 -17.203125 L 27.765625 -16.34375 L 28.484375 -14.921875 L 27.34375 -14.203125 Z M 23.203125 -14.5625 "/></g></g></g><g fill="#25de21" fill-opacity="0.502"><g transform="translate(45.358223, 218.007267)"><g><path d="M 24.84375 0.578125 L 23.484375 0.5 L 22.203125 0.21875 L 20.765625 -0.28125 L 19.484375 -0.578125 L 16.28125 -1.921875 L 13.203125 -3.5625 L 10 -6.359375 L 7.0625 -9.5 L 4 -15.703125 L 3 -19.765625 L 2.5625 -24.984375 L 3.28125 -31.125 L 4 -34.046875 L 5.78125 -38.046875 L 7.140625 -40.109375 L 9.0625 -42.546875 L 12.140625 -45.328125 L 14.203125 -46.890625 L 19.484375 -49.390625 L 26.40625 -50.75 L 30.828125 -50.671875 L 32.265625 -50.46875 L 33.625 -50.390625 L 40.46875 -48.109375 L 45.328125 -45.03125 L 47.328125 -42.96875 L 48.109375 -41.609375 L 49.109375 -40.390625 L 49.75 -39.25 L 50.53125 -38.109375 L 50.96875 -36.609375 L 51.46875 -35.328125 L 51.890625 -33.765625 L 51.390625 -32.328125 L 50.171875 -31.765625 L 48.03125 -31.546875 L 46.03125 -31.765625 L 44.609375 -31.6875 L 43.109375 -31.765625 L 41.828125 -31.625 L 40.1875 -32.40625 L 38.828125 -33.765625 L 38.046875 -34.828125 L 35.96875 -36.90625 L 34.96875 -37.6875 L 33.6875 -38.1875 L 31.46875 -38.828125 L 28.40625 -38.96875 L 23.625 -38.328125 L 21.703125 -37.25 L 19.984375 -35.90625 L 18.265625 -33.90625 L 17.5625 -32.546875 L 16.484375 -29.984375 L 15.984375 -27.125 L 15.984375 -22.765625 L 16.203125 -21.203125 L 16.5625 -19.90625 L 17.0625 -18.921875 L 17.5625 -17.484375 L 19.125 -14.984375 L 21.203125 -13.140625 L 23.703125 -11.84375 L 26.265625 -10.921875 L 28.328125 -10.703125 L 32.125 -10.921875 L 34.609375 -12.28125 L 35.6875 -12.703125 L 36.828125 -13.703125 L 38.46875 -15.5625 L 39.1875 -16.921875 L 40.328125 -18.0625 L 41.96875 -18.921875 L 43.390625 -18.84375 L 44.828125 -18.921875 L 46.25 -18.703125 L 50.25 -18.984375 L 51.671875 -18.0625 L 52.109375 -16.765625 L 50.25 -11.34375 L 48.75 -8.78125 L 47.109375 -6.640625 L 45.109375 -4.640625 L 41.609375 -2.140625 L 40.390625 -1.5625 L 38.90625 -1.078125 L 37.609375 -0.359375 L 33.40625 0.5 L 28.40625 0.859375 Z M 45.46875 -30.125 L 47.75 -30.125 L 49.25 -29.984375 L 51.953125 -30.046875 L 53.453125 -30.984375 L 53.953125 -32.1875 L 53.609375 -33.6875 L 52.03125 -38.046875 L 51.390625 -39.25 L 51.171875 -39.96875 L 51.890625 -39.546875 L 52.75 -38.75 L 55.25 -34.90625 L 55.75 -33.625 L 56.453125 -32.265625 L 56.671875 -30.90625 L 56.453125 -29.328125 L 55.75 -27.984375 L 54.3125 -27.34375 L 51.953125 -27.1875 L 50.390625 -27.34375 L 47.171875 -27.046875 L 45.6875 -27.125 L 44.109375 -27.84375 L 43.53125 -29.40625 Z M 17.484375 -24.046875 L 17.703125 -26.984375 L 17.984375 -28.265625 L 18.484375 -29.765625 L 19.703125 -32.1875 L 20.703125 -33.546875 L 21.5625 -34.40625 L 23.90625 -36.109375 L 26.546875 -37.109375 L 27.765625 -37.328125 L 30.125 -37.328125 L 32.546875 -36.90625 L 34.125 -36.046875 L 34.265625 -35.328125 L 30.125 -35.046875 L 27.046875 -34.46875 L 25.84375 -34.046875 L 24.703125 -33.328125 L 22.625 -31.46875 L 21.84375 -30.265625 L 19.984375 -26.40625 L 19.703125 -24.90625 L 19.5625 -19.0625 L 19.0625 -18.921875 L 18.265625 -20.265625 L 17.765625 -21.84375 Z M 27.546875 2.421875 L 29.984375 2.28125 L 31.40625 2.421875 L 33.046875 2.421875 L 36.40625 1.859375 L 37.96875 1.421875 L 39.1875 0.78125 L 40.609375 0.359375 L 41.828125 -0.421875 L 43.25 -1.078125 L 47.609375 -4.421875 L 50.53125 -7.703125 L 52.453125 -11.640625 L 52.890625 -13.140625 L 54.03125 -14.421875 L 55.453125 -14.484375 L 55.953125 -12.78125 L 55.671875 -11.5625 L 55.171875 -10.203125 L 53.953125 -7.640625 L 52.390625 -5 L 51.3125 -3.921875 L 50.46875 -2.859375 L 49.46875 -1.859375 L 46.109375 0.921875 L 42.1875 2.859375 L 40.6875 3.140625 L 37.90625 4.0625 L 36.609375 4.0625 L 31.625 4.703125 L 29.328125 4.421875 L 27.84375 4.5 L 26.484375 4.28125 L 25.203125 3.921875 L 23.765625 3.78125 L 22.40625 3.359375 L 21.34375 2.640625 L 20.703125 2.359375 L 22.265625 1.921875 Z M 27.546875 2.421875 "/></g></g></g><g fill="#25de21" fill-opacity="0.502"><g transform="translate(99.811982, 218.007267)"><g><path d="M 0.921875 -1.921875 L 1.78125 -4.921875 L 2.421875 -6.359375 L 3.28125 -7.5 L 5.359375 -12.703125 L 7.359375 -16.421875 L 7.84375 -17.84375 L 8.5 -18.984375 L 8.921875 -20.484375 L 9.921875 -22.34375 L 10.421875 -23.703125 L 11.484375 -25.546875 L 12.640625 -28.125 L 13.421875 -29.40625 L 13.78125 -30.625 L 17.765625 -39.609375 L 18.5625 -40.890625 L 21.625 -47.328125 L 22.0625 -48.609375 L 23.40625 -49.890625 L 25.6875 -50.609375 L 28.125 -49.96875 L 29.40625 -48.609375 L 29.828125 -47.25 L 30.484375 -46.171875 L 31.625 -43.46875 L 33.046875 -40.828125 L 34.125 -38.328125 L 34.46875 -37.1875 L 35.765625 -34.46875 L 36.1875 -33.125 L 37.609375 -30.625 L 37.96875 -29.265625 L 38.6875 -28.046875 L 39.25 -26.84375 L 40.046875 -25.546875 L 40.46875 -24.125 L 41.109375 -23.046875 L 41.609375 -21.625 L 42.25 -20.40625 L 42.828125 -18.984375 L 43.609375 -17.84375 L 44.609375 -15.203125 L 45.328125 -13.984375 L 45.828125 -12.640625 L 47.03125 -10.0625 L 47.46875 -8.703125 L 48.171875 -7.640625 L 48.609375 -6.203125 L 49.53125 -5 L 50.03125 -3.71875 L 50.46875 -1.921875 L 50.171875 -0.421875 L 48.890625 0 L 44.46875 0.140625 L 41.96875 -0.078125 L 40.6875 0.078125 L 38.828125 -0.640625 L 37.609375 -1.78125 L 36.828125 -3.0625 L 36.46875 -4.359375 L 34.96875 -5.5 L 32.625 -6.28125 L 29.265625 -6.140625 L 27.765625 -6.28125 L 26.484375 -6.28125 L 24.84375 -6.0625 L 23.34375 -6.28125 L 19.34375 -6.203125 L 17.921875 -6.359375 L 16.203125 -5.640625 L 14.984375 -4.28125 L 13.78125 -1.859375 L 12.484375 -0.578125 L 10.84375 0.140625 L 9 -0.078125 L 2.71875 -0.078125 L 1.28125 -0.421875 Z M 34.90625 -45.25 L 36.1875 -44.03125 L 37.328125 -41.328125 L 38.046875 -40.1875 L 38.546875 -38.6875 L 39.6875 -36.1875 L 40.546875 -34.90625 L 40.96875 -33.6875 L 41.75 -32.40625 L 42.109375 -31.046875 L 44.03125 -27.34375 L 45.03125 -24.546875 L 45.75 -23.265625 L 46.171875 -22.0625 L 46.96875 -20.90625 L 47.46875 -19.484375 L 49.3125 -15.5625 L 50.171875 -14.421875 L 51.671875 -10.34375 L 53.75 -6.703125 L 54.109375 -5.359375 L 54.8125 -4.0625 L 55.8125 0 L 55.890625 1.921875 L 54.8125 4.140625 L 52.671875 4.78125 L 51.3125 4.78125 L 49.8125 4.640625 L 43.46875 4.640625 L 41.609375 4.0625 L 41.109375 2.5 L 42.046875 1.859375 L 47.828125 1.921875 L 49.3125 1.78125 L 50.671875 1.859375 L 52.171875 1.140625 L 52.75 0 L 51.890625 -3.71875 L 51.171875 -5.140625 L 50.8125 -6.359375 L 49.96875 -7.703125 L 49.671875 -9 L 48.171875 -11.5625 L 47.75 -12.984375 L 44.75 -19.40625 L 43.96875 -20.5625 L 42.390625 -24.625 L 41.75 -25.84375 L 41.25 -27.046875 L 40.46875 -28.40625 L 40.046875 -29.828125 L 39.46875 -30.984375 L 38.6875 -32.125 L 37.96875 -33.46875 L 37.6875 -34.90625 L 33.265625 -43.890625 L 33.40625 -45.328125 Z M 22.984375 -17.625 L 28.546875 -17.703125 L 29.765625 -18.265625 L 29.90625 -19.5625 L 29.40625 -20.84375 L 28.6875 -22.265625 L 28.40625 -23.40625 L 27.625 -24.625 L 26.6875 -27.40625 L 25.84375 -27.984375 L 24.90625 -27.265625 L 24.265625 -26.125 L 21.40625 -19.625 L 21.625 -18.203125 Z M 23.84375 -20.625 L 24.203125 -22.125 L 24.90625 -23.484375 L 26.1875 -24.046875 L 26.84375 -21.984375 L 25.765625 -19.5625 L 24.203125 -19.203125 Z M 3.5625 3.21875 L 4.421875 2.21875 L 5.921875 1.859375 L 7.5625 1.921875 L 8.84375 1.78125 L 11.640625 1.921875 L 13.5625 1.28125 L 14.78125 0.078125 L 15.921875 -2.5625 L 17.265625 -3.859375 L 18.984375 -4.421875 L 20.5625 -4.5 L 23.484375 -4.359375 L 25.046875 -4.5 L 26.984375 -4.359375 L 30.6875 -4.5 L 32.046875 -4.421875 L 33.96875 -3.78125 L 34.46875 -2.21875 L 33.40625 -1.640625 L 30.625 -1.640625 L 29.40625 -1.5 L 27.84375 -1.71875 L 20.703125 -1.640625 L 19.203125 -0.859375 L 17.765625 0.21875 L 16.5625 2.921875 L 15.34375 4.0625 L 13.625 4.78125 L 12.140625 4.859375 L 10.34375 4.640625 L 5.359375 4.703125 L 4.0625 4.359375 Z M 3.5625 3.21875 "/></g></g></g><g fill="#25de21" fill-opacity="0.502"><g transform="translate(151.62513, 218.007267)"><g><path d="M 5.5 -2.28125 L 5.28125 -7.84375 L 5.421875 -9.34375 L 5.140625 -13.484375 L 5.359375 -16.421875 L 5.140625 -17.984375 L 5.203125 -20.703125 L 5.359375 -22.203125 L 5.359375 -25.765625 L 5.140625 -27.84375 L 5.359375 -47.828125 L 5.921875 -49.3125 L 7.28125 -49.96875 L 8.84375 -49.890625 L 10.203125 -50.109375 L 13.140625 -49.8125 L 14.484375 -50.03125 L 18.765625 -49.890625 L 19.984375 -50.03125 L 21.5625 -49.890625 L 22.984375 -50.03125 L 24.546875 -49.96875 L 26.625 -50.03125 L 28.40625 -49.890625 L 34.328125 -48.671875 L 36.828125 -47.390625 L 40.390625 -44.6875 L 41.046875 -43.609375 L 42.046875 -42.546875 L 43.96875 -38.609375 L 44.328125 -37.1875 L 44.53125 -35.828125 L 44.890625 -34.46875 L 44.828125 -28.828125 L 44.03125 -26.125 L 43.53125 -24.90625 L 42.75 -23.625 L 42.25 -22.265625 L 41.390625 -21.0625 L 39.40625 -19.125 L 38.609375 -17.625 L 38.828125 -15.921875 L 40.96875 -12.203125 L 41.890625 -11.0625 L 42.609375 -9.78125 L 43.46875 -8.5 L 44.109375 -7.28125 L 46.390625 -3.78125 L 47.328125 -2 L 47.03125 -0.5 L 45.53125 -0.140625 L 43.96875 0 L 41.109375 0 L 39.6875 -0.140625 L 38.109375 0 L 35.546875 -0.140625 L 33.765625 -0.578125 L 32.328125 -1.859375 L 31.46875 -3 L 30.828125 -4.21875 L 29.90625 -5.5625 L 27.90625 -9.140625 L 27.40625 -10.484375 L 25.546875 -12.984375 L 24.40625 -14.203125 L 22.625 -14.78125 L 21.34375 -14.703125 L 20.0625 -14.703125 L 18.625 -13.984375 L 17.984375 -12.5625 L 18.125 -8.140625 L 17.921875 -5.0625 L 18.203125 -3.5625 L 18.0625 -2.0625 L 17.5625 -0.71875 L 15.34375 0 L 13.203125 0 L 11.703125 -0.140625 L 8.78125 0.078125 L 7.421875 0 L 6 -0.71875 Z M 20.0625 -26.265625 L 21.625 -26.265625 L 23.046875 -26.046875 L 28.625 -26.546875 L 29.6875 -27.046875 L 30.546875 -27.90625 L 31.328125 -29.125 L 31.90625 -30.546875 L 32.125 -32.46875 L 31.96875 -34.546875 L 31.46875 -35.6875 L 30.765625 -36.765625 L 28.546875 -38.109375 L 25.265625 -38.546875 L 21.34375 -38.609375 L 20.203125 -38.546875 L 18.765625 -37.828125 L 17.921875 -36.40625 L 18.125 -28.40625 L 18.84375 -26.90625 Z M 47.109375 -37.046875 L 47.671875 -35.765625 L 48.171875 -34.546875 L 48.828125 -33.328125 L 49.46875 -30.484375 L 49.171875 -28.40625 L 49.109375 -26.34375 L 48.46875 -23.484375 L 45.53125 -18.484375 L 45.109375 -16.84375 L 45.46875 -15.125 L 47.390625 -11.203125 L 48.328125 -10.0625 L 48.890625 -8.703125 L 50.46875 -6.203125 L 51.671875 -3 L 52.171875 -0.71875 L 51.953125 1.640625 L 50.46875 3.78125 L 48.671875 4.5 L 47.109375 4.5625 L 45.828125 4.421875 L 43.6875 4.640625 L 40.609375 4.5 L 38.109375 3.78125 L 37.46875 2.5 L 38.40625 1.71875 L 47.03125 1.78125 L 48.390625 1.078125 L 49.109375 -0.5 L 49.03125 -2.5 L 48.25 -4.5 L 47.609375 -5.5625 L 46.75 -6.859375 L 46.171875 -8.140625 L 43.6875 -11.703125 L 43.109375 -12.984375 L 42.546875 -14.125 L 41.6875 -15.34375 L 41.25 -16.984375 L 41.96875 -18.703125 L 43.03125 -19.703125 L 43.96875 -20.765625 L 45.25 -23.125 L 46.53125 -27.125 L 46.828125 -28.546875 L 46.890625 -33.96875 L 46.671875 -35.40625 L 46.25 -36.6875 L 46.53125 -37.546875 Z M 19.90625 -30.1875 L 19.90625 -34.6875 L 20.5625 -35.96875 L 22.0625 -36.828125 L 26.1875 -36.765625 L 28.265625 -36.265625 L 29.546875 -35.46875 L 29.765625 -34.328125 L 28.6875 -33.96875 L 25.203125 -34.046875 L 23.484375 -33.265625 L 22.125 -28.765625 L 20.5625 -28.90625 Z M 10.640625 2.421875 L 12.0625 1.71875 L 17.84375 1.78125 L 19.203125 1 L 19.90625 -1.21875 L 19.765625 -3.421875 L 19.84375 -4.921875 L 19.765625 -6.28125 L 19.984375 -7.84375 L 19.90625 -10 L 20.484375 -12.28125 L 21.703125 -12.921875 L 23.265625 -12.140625 L 24.125 -10.78125 L 22.765625 -8.0625 L 22.546875 2.421875 L 21.984375 3.78125 L 19.765625 4.5 L 12.0625 4.5625 L 10.640625 3.859375 Z M 10.640625 2.421875 "/></g></g></g><g fill="#25de21" fill-opacity="0.502"><g transform="translate(201.083133, 218.007267)"><g><path d="M 5.359375 -2.0625 L 5.203125 -3.5625 L 5.5 -4.921875 L 5.359375 -6.359375 L 5.421875 -15.0625 L 5.28125 -16.34375 L 5.203125 -19.203125 L 5.421875 -20.625 L 5.203125 -23.484375 L 5.421875 -24.84375 L 5.203125 -27.90625 L 5.421875 -29.265625 L 5.28125 -30.6875 L 5.5 -31.96875 L 5.28125 -33.46875 L 5.421875 -34.90625 L 5.359375 -36.265625 L 5.5625 -37.828125 L 5.421875 -39.1875 L 5.203125 -40.609375 L 5.421875 -42.109375 L 5.5625 -43.46875 L 5.140625 -47.171875 L 6.0625 -49.109375 L 8.140625 -49.890625 L 15.5625 -50.03125 L 17.421875 -49.171875 L 18.125 -47.03125 L 18.265625 -43.53125 L 18.125 -41.96875 L 18.34375 -30.828125 L 18.125 -29.328125 L 18.34375 -27.765625 L 18.125 -25.765625 L 18.203125 -22.203125 L 18.0625 -20.703125 L 18.203125 -19.265625 L 18.125 -17.703125 L 18.34375 -16.34375 L 18.265625 -13.703125 L 18.703125 -12.140625 L 20.203125 -11.484375 L 32.765625 -11.34375 L 34.328125 -11.5625 L 35.46875 -10.84375 L 36.40625 -9.28125 L 36.1875 -7.921875 L 36.40625 -6.359375 L 36.265625 -5.0625 L 36.1875 -3.640625 L 36.328125 -2.0625 L 35.546875 -0.78125 L 33.546875 -0.078125 L 8.28125 0.078125 L 6 -0.78125 Z M 20.125 -15.421875 L 20.125 -16.921875 L 19.90625 -18.265625 L 20.125 -19.765625 L 19.984375 -37.25 L 19.84375 -38.75 L 20.125 -40.109375 L 20.125 -43.109375 L 20.703125 -44.53125 L 22.125 -44.46875 L 23.046875 -43.109375 L 22.703125 -37.1875 L 22.90625 -35.765625 L 22.84375 -29.90625 L 23.046875 -26.90625 L 22.84375 -25.484375 L 22.84375 -21.84375 L 23.046875 -20.5625 L 23.046875 -16.703125 L 22.90625 -15.421875 L 22.265625 -13.921875 L 20.765625 -13.84375 Z M 10.78125 2.640625 L 12.78125 1.859375 L 17.84375 1.859375 L 19.0625 1.71875 L 24.203125 2 L 26.265625 1.859375 L 33.1875 2 L 35.90625 1.78125 L 37.546875 1.140625 L 38.25 -0.21875 L 38.109375 -1.640625 L 38.328125 -3.0625 L 38.109375 -4.640625 L 38.96875 -6.140625 L 40.546875 -6.140625 L 41.109375 -4.640625 L 40.96875 2.5 L 40.390625 4 L 38.828125 4.703125 L 26.90625 4.859375 L 25.40625 4.703125 L 23.984375 4.859375 L 11.984375 4.640625 L 10.78125 3.859375 Z M 10.78125 2.640625 "/></g></g></g><g fill="#25de21" fill-opacity="0.502"><g transform="translate(239.479098, 218.007267)"><g><path d="M 26.6875 0.859375 L 25.203125 0.71875 L 22.625 0.140625 L 21.0625 0 L 18.984375 -0.71875 L 13.421875 -3.5625 L 11.0625 -5.421875 L 10.28125 -6.359375 L 9.203125 -7.359375 L 8.28125 -8.5 L 7.421875 -9.34375 L 4.140625 -15.84375 L 3.5 -18.5625 L 3.359375 -19.90625 L 3 -21.203125 L 2.78125 -22.703125 L 3 -28.484375 L 4.21875 -33.96875 L 5.28125 -36.6875 L 7.5 -40.46875 L 10.984375 -44.53125 L 13.421875 -46.328125 L 14.703125 -46.96875 L 15.78125 -47.75 L 21.125 -49.75 L 28.6875 -50.8125 L 30.625 -50.75 L 34.765625 -50.03125 L 40.25 -48.328125 L 41.328125 -47.53125 L 43.46875 -46.609375 L 45.109375 -45.46875 L 47.171875 -43.6875 L 49.171875 -41.46875 L 50.75 -39.328125 L 52.109375 -36.6875 L 53.890625 -31.328125 L 54.390625 -28.40625 L 54.609375 -24.84375 L 54.3125 -22.765625 L 54.25 -21.265625 L 53.890625 -19.84375 L 53.8125 -18.5625 L 53.25 -15.84375 L 52.171875 -13.140625 L 49.03125 -8.34375 L 48.03125 -7.359375 L 47.109375 -6.0625 L 45.109375 -4.359375 L 43.75 -3.71875 L 42.6875 -2.859375 L 40.328125 -1.5625 L 34.96875 0.21875 L 30.6875 0.78125 Z M 30.6875 -11.78125 L 32.125 -12.0625 L 33.1875 -12.5625 L 34.46875 -12.921875 L 37.90625 -15.28125 L 38.90625 -16.421875 L 39.328125 -17.484375 L 40.109375 -18.765625 L 40.609375 -20.0625 L 41.1875 -22.703125 L 41.328125 -27.046875 L 41.109375 -28.328125 L 40.46875 -29.6875 L 39.609375 -32.40625 L 36.828125 -35.328125 L 34.609375 -36.90625 L 33.328125 -37.46875 L 32.046875 -37.75 L 28.625 -38.1875 L 26.625 -38.046875 L 23.84375 -37.328125 L 22.90625 -36.96875 L 19.34375 -34.546875 L 17.625 -32.265625 L 17.203125 -30.984375 L 16.625 -29.6875 L 16.421875 -28.328125 L 16.0625 -27.046875 L 16.0625 -22.703125 L 16.625 -20.0625 L 17.265625 -18.765625 L 17.625 -17.625 L 18.625 -16.28125 L 19.5625 -15.28125 L 21.484375 -13.703125 L 22.625 -13.0625 L 25.203125 -11.984375 L 26.765625 -11.78125 Z M 18.125 -23.625 L 18.265625 -25.765625 L 19.0625 -29.828125 L 20.5625 -32.1875 L 21.703125 -33.328125 L 23.984375 -35.046875 L 25.203125 -35.609375 L 26.484375 -35.96875 L 28.40625 -36.046875 L 29.546875 -36.265625 L 31.96875 -35.828125 L 34.40625 -34.46875 L 33.1875 -34.265625 L 31.96875 -34.1875 L 29.90625 -34.046875 L 28.546875 -33.765625 L 27.125 -33.328125 L 25.265625 -32.40625 L 23.765625 -31.125 L 21.90625 -28.90625 L 20.625 -25.203125 L 20.0625 -21.5625 L 20.125 -19.125 L 19.703125 -18.203125 L 18.703125 -20.625 Z M 55.953125 -26.625 L 55.53125 -31.625 L 55.8125 -32.328125 L 56.25 -31.6875 L 57.453125 -27.625 L 57.453125 -26.34375 L 57.953125 -24.84375 L 57.890625 -23.546875 L 57.953125 -21.34375 L 57.671875 -16.34375 L 57.171875 -14.921875 L 56.75 -11.984375 L 54.953125 -8.140625 L 52.609375 -4.421875 L 51.46875 -3.5 L 50.46875 -2.28125 L 48.328125 -0.421875 L 44.46875 1.71875 L 43.46875 2.421875 L 42.046875 2.71875 L 40.046875 3.5 L 34.96875 4.359375 L 29.828125 4.28125 L 26.484375 3.859375 L 25.125 3.359375 L 22.40625 2.78125 L 21.84375 2.0625 L 22.625 1.921875 L 24.203125 2.21875 L 30.125 2.5 L 34.96875 2.140625 L 39.109375 1.140625 L 40.390625 0.640625 L 42.96875 -0.640625 L 44.03125 -1.359375 L 45.46875 -1.921875 L 47.609375 -3.5625 L 49.609375 -5.5625 L 53.171875 -10.34375 L 55.53125 -16.84375 L 55.59375 -18.421875 L 55.953125 -19.90625 L 56.25 -24.046875 Z M 56.3125 -22.90625 L 56.390625 -23.125 L 56.09375 -22.546875 Z M 56.3125 -22.90625 "/></g></g></g><g fill="#25de21" fill-opacity="0.502"><g transform="translate(296.716223, 218.007267)"><g><path d="M 20.703125 0.578125 L 17.703125 0.359375 L 16.34375 -0.140625 L 14.78125 -0.359375 L 9.640625 -2.71875 L 8.421875 -3.5 L 6.359375 -5.5625 L 4.5625 -7.78125 L 3.421875 -10.640625 L 3.140625 -11.921875 L 3 -13.484375 L 3.5 -14.984375 L 4.921875 -15.625 L 6.359375 -15.5625 L 7.78125 -15.703125 L 13.203125 -15.5625 L 14.625 -14.984375 L 15.703125 -13.5625 L 16.765625 -12.5625 L 18.0625 -11.78125 L 19.125 -11.28125 L 20.765625 -10.84375 L 22.90625 -10.703125 L 24.90625 -10.78125 L 27.546875 -11.5625 L 28.6875 -12.203125 L 29.828125 -13.203125 L 30.265625 -15.0625 L 29.90625 -16.921875 L 28.90625 -17.765625 L 26.34375 -18.84375 L 24.90625 -18.921875 L 23.625 -19.125 L 17.765625 -19.5625 L 15.203125 -20.125 L 11.140625 -21.484375 L 8.640625 -22.984375 L 6.640625 -24.84375 L 4.859375 -27.1875 L 3.921875 -29.6875 L 3.421875 -31.6875 L 3.359375 -36.46875 L 4.359375 -40.609375 L 5.0625 -41.75 L 5.5625 -43.03125 L 6.5 -43.96875 L 7.28125 -45.1875 L 8.5625 -46.03125 L 9.5625 -46.96875 L 10.984375 -47.828125 L 12.140625 -48.25 L 13.28125 -48.96875 L 14.5625 -49.46875 L 20.203125 -50.609375 L 24.203125 -50.671875 L 25.765625 -50.3125 L 27.046875 -50.171875 L 28.546875 -49.890625 L 32.46875 -48.53125 L 37.046875 -45.390625 L 37.96875 -44.328125 L 38.6875 -43.1875 L 39.609375 -42.046875 L 40.75 -39.46875 L 41.328125 -36.6875 L 40.6875 -35.328125 L 39.328125 -34.46875 L 37.96875 -34.609375 L 36.6875 -34.46875 L 31.96875 -34.609375 L 29.765625 -35.328125 L 27.40625 -37.828125 L 26.34375 -38.6875 L 24.765625 -39.25 L 20.203125 -39.109375 L 18.921875 -38.828125 L 17.921875 -38.40625 L 16.703125 -37.46875 L 15.921875 -36.46875 L 15.703125 -34.609375 L 15.78125 -32.6875 L 16.921875 -31.546875 L 17.984375 -30.984375 L 20.984375 -29.90625 L 28.1875 -28.984375 L 34.046875 -27.546875 L 37.828125 -25.84375 L 39.046875 -24.84375 L 40.75 -22.625 L 42.1875 -19.984375 L 42.546875 -18.625 L 42.75 -17.203125 L 42.6875 -12.78125 L 42.46875 -11.484375 L 42.046875 -10.0625 L 41.46875 -8.78125 L 40.046875 -6.5 L 38.046875 -4.21875 L 35.765625 -2.640625 L 32.046875 -0.640625 L 25.046875 0.71875 L 22.765625 0.78125 Z M 35.546875 -32.765625 L 39.328125 -32.6875 L 40.96875 -32.765625 L 42.46875 -33.546875 L 43.03125 -34.828125 L 43.109375 -36.1875 L 42.609375 -39.109375 L 42.046875 -41.046875 L 42.6875 -40.609375 L 44.390625 -37.96875 L 45.03125 -36.46875 L 45.25 -35.109375 L 45.109375 -33.546875 L 45.1875 -32.1875 L 44.109375 -30.6875 L 41.75 -29.828125 L 36.609375 -29.828125 L 35.40625 -30.046875 L 33.765625 -30.828125 L 33.46875 -32.1875 Z M 17.984375 -35.828125 L 18.984375 -36.6875 L 20.484375 -37.1875 L 21.84375 -37.40625 L 24.046875 -37.328125 L 26.125 -36.828125 L 27.046875 -36.046875 L 26.125 -35.46875 L 22.84375 -34.96875 L 21.484375 -34.609375 L 20.40625 -33.90625 L 18.921875 -33.328125 L 17.921875 -34.125 Z M 15.0625 0.921875 L 16.484375 1.5 L 22.40625 2.421875 L 26.84375 2.421875 L 29.40625 2.140625 L 30.828125 1.5625 L 32.328125 1.21875 L 37.328125 -1.21875 L 38.40625 -2.0625 L 39.328125 -3 L 40.390625 -3.859375 L 41.25 -4.921875 L 42.390625 -6 L 43.25 -7.28125 L 43.609375 -8.421875 L 44.109375 -9.703125 L 44.609375 -11.28125 L 44.53125 -16.703125 L 44.328125 -18.0625 L 44.03125 -19.265625 L 44.109375 -20.125 L 44.6875 -19.703125 L 45.390625 -18.484375 L 46.609375 -14.5625 L 46.75 -13.203125 L 46.609375 -9.0625 L 46.390625 -7.703125 L 45.1875 -5.203125 L 43.6875 -2.78125 L 42.828125 -1.640625 L 39.546875 1.078125 L 38.328125 1.78125 L 32.96875 3.921875 L 31.546875 4.28125 L 30.125 4.359375 L 28.828125 4.640625 L 22.90625 4.421875 L 18.765625 3.5625 L 17.625 2.921875 L 16.0625 2.21875 L 14.921875 1.5 L 14.34375 0.859375 Z M 23.203125 -14.5625 L 20.484375 -14.984375 L 15.0625 -16.703125 L 13.703125 -17.34375 L 11.484375 -18.765625 L 10.984375 -19.40625 L 11.703125 -19.5625 L 14.203125 -18.625 L 18.34375 -17.84375 L 19.765625 -17.84375 L 21.0625 -17.5625 L 25.765625 -17.203125 L 27.765625 -16.34375 L 28.484375 -14.921875 L 27.34375 -14.203125 Z M 23.203125 -14.5625 "/></g></g></g><g fill="#ffffff" fill-opacity="1"><g transform="translate(39.049881, 211.698917)"><g><path d="M 24.84375 0.578125 L 23.484375 0.5 L 22.203125 0.21875 L 20.765625 -0.28125 L 19.484375 -0.578125 L 16.28125 -1.921875 L 13.203125 -3.5625 L 10 -6.359375 L 7.0625 -9.5 L 4 -15.703125 L 3 -19.765625 L 2.5625 -24.984375 L 3.28125 -31.125 L 4 -34.046875 L 5.78125 -38.046875 L 7.140625 -40.109375 L 9.0625 -42.546875 L 12.140625 -45.328125 L 14.203125 -46.890625 L 19.484375 -49.390625 L 26.40625 -50.75 L 30.828125 -50.671875 L 32.265625 -50.46875 L 33.625 -50.390625 L 40.46875 -48.109375 L 45.328125 -45.03125 L 47.328125 -42.96875 L 48.109375 -41.609375 L 49.109375 -40.390625 L 49.75 -39.25 L 50.53125 -38.109375 L 50.96875 -36.609375 L 51.46875 -35.328125 L 51.890625 -33.765625 L 51.390625 -32.328125 L 50.171875 -31.765625 L 48.03125 -31.546875 L 46.03125 -31.765625 L 44.609375 -31.6875 L 43.109375 -31.765625 L 41.828125 -31.625 L 40.1875 -32.40625 L 38.828125 -33.765625 L 38.046875 -34.828125 L 35.96875 -36.90625 L 34.96875 -37.6875 L 33.6875 -38.1875 L 31.46875 -38.828125 L 28.40625 -38.96875 L 23.625 -38.328125 L 21.703125 -37.25 L 19.984375 -35.90625 L 18.265625 -33.90625 L 17.5625 -32.546875 L 16.484375 -29.984375 L 15.984375 -27.125 L 15.984375 -22.765625 L 16.203125 -21.203125 L 16.5625 -19.90625 L 17.0625 -18.921875 L 17.5625 -17.484375 L 19.125 -14.984375 L 21.203125 -13.140625 L 23.703125 -11.84375 L 26.265625 -10.921875 L 28.328125 -10.703125 L 32.125 -10.921875 L 34.609375 -12.28125 L 35.6875 -12.703125 L 36.828125 -13.703125 L 38.46875 -15.5625 L 39.1875 -16.921875 L 40.328125 -18.0625 L 41.96875 -18.921875 L 43.390625 -18.84375 L 44.828125 -18.921875 L 46.25 -18.703125 L 50.25 -18.984375 L 51.671875 -18.0625 L 52.109375 -16.765625 L 50.25 -11.34375 L 48.75 -8.78125 L 47.109375 -6.640625 L 45.109375 -4.640625 L 41.609375 -2.140625 L 40.390625 -1.5625 L 38.90625 -1.078125 L 37.609375 -0.359375 L 33.40625 0.5 L 28.40625 0.859375 Z M 45.46875 -30.125 L 47.75 -30.125 L 49.25 -29.984375 L 51.953125 -30.046875 L 53.453125 -30.984375 L 53.953125 -32.1875 L 53.609375 -33.6875 L 52.03125 -38.046875 L 51.390625 -39.25 L 51.171875 -39.96875 L 51.890625 -39.546875 L 52.75 -38.75 L 55.25 -34.90625 L 55.75 -33.625 L 56.453125 -32.265625 L 56.671875 -30.90625 L 56.453125 -29.328125 L 55.75 -27.984375 L 54.3125 -27.34375 L 51.953125 -27.1875 L 50.390625 -27.34375 L 47.171875 -27.046875 L 45.6875 -27.125 L 44.109375 -27.84375 L 43.53125 -29.40625 Z M 17.484375 -24.046875 L 17.703125 -26.984375 L 17.984375 -28.265625 L 18.484375 -29.765625 L 19.703125 -32.1875 L 20.703125 -33.546875 L 21.5625 -34.40625 L 23.90625 -36.109375 L 26.546875 -37.109375 L 27.765625 -37.328125 L 30.125 -37.328125 L 32.546875 -36.90625 L 34.125 -36.046875 L 34.265625 -35.328125 L 30.125 -35.046875 L 27.046875 -34.46875 L 25.84375 -34.046875 L 24.703125 -33.328125 L 22.625 -31.46875 L 21.84375 -30.265625 L 19.984375 -26.40625 L 19.703125 -24.90625 L 19.5625 -19.0625 L 19.0625 -18.921875 L 18.265625 -20.265625 L 17.765625 -21.84375 Z M 27.546875 2.421875 L 29.984375 2.28125 L 31.40625 2.421875 L 33.046875 2.421875 L 36.40625 1.859375 L 37.96875 1.421875 L 39.1875 0.78125 L 40.609375 0.359375 L 41.828125 -0.421875 L 43.25 -1.078125 L 47.609375 -4.421875 L 50.53125 -7.703125 L 52.453125 -11.640625 L 52.890625 -13.140625 L 54.03125 -14.421875 L 55.453125 -14.484375 L 55.953125 -12.78125 L 55.671875 -11.5625 L 55.171875 -10.203125 L 53.953125 -7.640625 L 52.390625 -5 L 51.3125 -3.921875 L 50.46875 -2.859375 L 49.46875 -1.859375 L 46.109375 0.921875 L 42.1875 2.859375 L 40.6875 3.140625 L 37.90625 4.0625 L 36.609375 4.0625 L 31.625 4.703125 L 29.328125 4.421875 L 27.84375 4.5 L 26.484375 4.28125 L 25.203125 3.921875 L 23.765625 3.78125 L 22.40625 3.359375 L 21.34375 2.640625 L 20.703125 2.359375 L 22.265625 1.921875 Z M 27.546875 2.421875 "/></g></g></g><g fill="#ffffff" fill-opacity="1"><g transform="translate(93.50364, 211.698917)"><g><path d="M 0.921875 -1.921875 L 1.78125 -4.921875 L 2.421875 -6.359375 L 3.28125 -7.5 L 5.359375 -12.703125 L 7.359375 -16.421875 L 7.84375 -17.84375 L 8.5 -18.984375 L 8.921875 -20.484375 L 9.921875 -22.34375 L 10.421875 -23.703125 L 11.484375 -25.546875 L 12.640625 -28.125 L 13.421875 -29.40625 L 13.78125 -30.625 L 17.765625 -39.609375 L 18.5625 -40.890625 L 21.625 -47.328125 L 22.0625 -48.609375 L 23.40625 -49.890625 L 25.6875 -50.609375 L 28.125 -49.96875 L 29.40625 -48.609375 L 29.828125 -47.25 L 30.484375 -46.171875 L 31.625 -43.46875 L 33.046875 -40.828125 L 34.125 -38.328125 L 34.46875 -37.1875 L 35.765625 -34.46875 L 36.1875 -33.125 L 37.609375 -30.625 L 37.96875 -29.265625 L 38.6875 -28.046875 L 39.25 -26.84375 L 40.046875 -25.546875 L 40.46875 -24.125 L 41.109375 -23.046875 L 41.609375 -21.625 L 42.25 -20.40625 L 42.828125 -18.984375 L 43.609375 -17.84375 L 44.609375 -15.203125 L 45.328125 -13.984375 L 45.828125 -12.640625 L 47.03125 -10.0625 L 47.46875 -8.703125 L 48.171875 -7.640625 L 48.609375 -6.203125 L 49.53125 -5 L 50.03125 -3.71875 L 50.46875 -1.921875 L 50.171875 -0.421875 L 48.890625 0 L 44.46875 0.140625 L 41.96875 -0.078125 L 40.6875 0.078125 L 38.828125 -0.640625 L 37.609375 -1.78125 L 36.828125 -3.0625 L 36.46875 -4.359375 L 34.96875 -5.5 L 32.625 -6.28125 L 29.265625 -6.140625 L 27.765625 -6.28125 L 26.484375 -6.28125 L 24.84375 -6.0625 L 23.34375 -6.28125 L 19.34375 -6.203125 L 17.921875 -6.359375 L 16.203125 -5.640625 L 14.984375 -4.28125 L 13.78125 -1.859375 L 12.484375 -0.578125 L 10.84375 0.140625 L 9 -0.078125 L 2.71875 -0.078125 L 1.28125 -0.421875 Z M 34.90625 -45.25 L 36.1875 -44.03125 L 37.328125 -41.328125 L 38.046875 -40.1875 L 38.546875 -38.6875 L 39.6875 -36.1875 L 40.546875 -34.90625 L 40.96875 -33.6875 L 41.75 -32.40625 L 42.109375 -31.046875 L 44.03125 -27.34375 L 45.03125 -24.546875 L 45.75 -23.265625 L 46.171875 -22.0625 L 46.96875 -20.90625 L 47.46875 -19.484375 L 49.3125 -15.5625 L 50.171875 -14.421875 L 51.671875 -10.34375 L 53.75 -6.703125 L 54.109375 -5.359375 L 54.8125 -4.0625 L 55.8125 0 L 55.890625 1.921875 L 54.8125 4.140625 L 52.671875 4.78125 L 51.3125 4.78125 L 49.8125 4.640625 L 43.46875 4.640625 L 41.609375 4.0625 L 41.109375 2.5 L 42.046875 1.859375 L 47.828125 1.921875 L 49.3125 1.78125 L 50.671875 1.859375 L 52.171875 1.140625 L 52.75 0 L 51.890625 -3.71875 L 51.171875 -5.140625 L 50.8125 -6.359375 L 49.96875 -7.703125 L 49.671875 -9 L 48.171875 -11.5625 L 47.75 -12.984375 L 44.75 -19.40625 L 43.96875 -20.5625 L 42.390625 -24.625 L 41.75 -25.84375 L 41.25 -27.046875 L 40.46875 -28.40625 L 40.046875 -29.828125 L 39.46875 -30.984375 L 38.6875 -32.125 L 37.96875 -33.46875 L 37.6875 -34.90625 L 33.265625 -43.890625 L 33.40625 -45.328125 Z M 22.984375 -17.625 L 28.546875 -17.703125 L 29.765625 -18.265625 L 29.90625 -19.5625 L 29.40625 -20.84375 L 28.6875 -22.265625 L 28.40625 -23.40625 L 27.625 -24.625 L 26.6875 -27.40625 L 25.84375 -27.984375 L 24.90625 -27.265625 L 24.265625 -26.125 L 21.40625 -19.625 L 21.625 -18.203125 Z M 23.84375 -20.625 L 24.203125 -22.125 L 24.90625 -23.484375 L 26.1875 -24.046875 L 26.84375 -21.984375 L 25.765625 -19.5625 L 24.203125 -19.203125 Z M 3.5625 3.21875 L 4.421875 2.21875 L 5.921875 1.859375 L 7.5625 1.921875 L 8.84375 1.78125 L 11.640625 1.921875 L 13.5625 1.28125 L 14.78125 0.078125 L 15.921875 -2.5625 L 17.265625 -3.859375 L 18.984375 -4.421875 L 20.5625 -4.5 L 23.484375 -4.359375 L 25.046875 -4.5 L 26.984375 -4.359375 L 30.6875 -4.5 L 32.046875 -4.421875 L 33.96875 -3.78125 L 34.46875 -2.21875 L 33.40625 -1.640625 L 30.625 -1.640625 L 29.40625 -1.5 L 27.84375 -1.71875 L 20.703125 -1.640625 L 19.203125 -0.859375 L 17.765625 0.21875 L 16.5625 2.921875 L 15.34375 4.0625 L 13.625 4.78125 L 12.140625 4.859375 L 10.34375 4.640625 L 5.359375 4.703125 L 4.0625 4.359375 Z M 3.5625 3.21875 "/></g></g></g><g fill="#ffffff" fill-opacity="1"><g transform="translate(145.316788, 211.698917)"><g><path d="M 5.5 -2.28125 L 5.28125 -7.84375 L 5.421875 -9.34375 L 5.140625 -13.484375 L 5.359375 -16.421875 L 5.140625 -17.984375 L 5.203125 -20.703125 L 5.359375 -22.203125 L 5.359375 -25.765625 L 5.140625 -27.84375 L 5.359375 -47.828125 L 5.921875 -49.3125 L 7.28125 -49.96875 L 8.84375 -49.890625 L 10.203125 -50.109375 L 13.140625 -49.8125 L 14.484375 -50.03125 L 18.765625 -49.890625 L 19.984375 -50.03125 L 21.5625 -49.890625 L 22.984375 -50.03125 L 24.546875 -49.96875 L 26.625 -50.03125 L 28.40625 -49.890625 L 34.328125 -48.671875 L 36.828125 -47.390625 L 40.390625 -44.6875 L 41.046875 -43.609375 L 42.046875 -42.546875 L 43.96875 -38.609375 L 44.328125 -37.1875 L 44.53125 -35.828125 L 44.890625 -34.46875 L 44.828125 -28.828125 L 44.03125 -26.125 L 43.53125 -24.90625 L 42.75 -23.625 L 42.25 -22.265625 L 41.390625 -21.0625 L 39.40625 -19.125 L 38.609375 -17.625 L 38.828125 -15.921875 L 40.96875 -12.203125 L 41.890625 -11.0625 L 42.609375 -9.78125 L 43.46875 -8.5 L 44.109375 -7.28125 L 46.390625 -3.78125 L 47.328125 -2 L 47.03125 -0.5 L 45.53125 -0.140625 L 43.96875 0 L 41.109375 0 L 39.6875 -0.140625 L 38.109375 0 L 35.546875 -0.140625 L 33.765625 -0.578125 L 32.328125 -1.859375 L 31.46875 -3 L 30.828125 -4.21875 L 29.90625 -5.5625 L 27.90625 -9.140625 L 27.40625 -10.484375 L 25.546875 -12.984375 L 24.40625 -14.203125 L 22.625 -14.78125 L 21.34375 -14.703125 L 20.0625 -14.703125 L 18.625 -13.984375 L 17.984375 -12.5625 L 18.125 -8.140625 L 17.921875 -5.0625 L 18.203125 -3.5625 L 18.0625 -2.0625 L 17.5625 -0.71875 L 15.34375 0 L 13.203125 0 L 11.703125 -0.140625 L 8.78125 0.078125 L 7.421875 0 L 6 -0.71875 Z M 20.0625 -26.265625 L 21.625 -26.265625 L 23.046875 -26.046875 L 28.625 -26.546875 L 29.6875 -27.046875 L 30.546875 -27.90625 L 31.328125 -29.125 L 31.90625 -30.546875 L 32.125 -32.46875 L 31.96875 -34.546875 L 31.46875 -35.6875 L 30.765625 -36.765625 L 28.546875 -38.109375 L 25.265625 -38.546875 L 21.34375 -38.609375 L 20.203125 -38.546875 L 18.765625 -37.828125 L 17.921875 -36.40625 L 18.125 -28.40625 L 18.84375 -26.90625 Z M 47.109375 -37.046875 L 47.671875 -35.765625 L 48.171875 -34.546875 L 48.828125 -33.328125 L 49.46875 -30.484375 L 49.171875 -28.40625 L 49.109375 -26.34375 L 48.46875 -23.484375 L 45.53125 -18.484375 L 45.109375 -16.84375 L 45.46875 -15.125 L 47.390625 -11.203125 L 48.328125 -10.0625 L 48.890625 -8.703125 L 50.46875 -6.203125 L 51.671875 -3 L 52.171875 -0.71875 L 51.953125 1.640625 L 50.46875 3.78125 L 48.671875 4.5 L 47.109375 4.5625 L 45.828125 4.421875 L 43.6875 4.640625 L 40.609375 4.5 L 38.109375 3.78125 L 37.46875 2.5 L 38.40625 1.71875 L 47.03125 1.78125 L 48.390625 1.078125 L 49.109375 -0.5 L 49.03125 -2.5 L 48.25 -4.5 L 47.609375 -5.5625 L 46.75 -6.859375 L 46.171875 -8.140625 L 43.6875 -11.703125 L 43.109375 -12.984375 L 42.546875 -14.125 L 41.6875 -15.34375 L 41.25 -16.984375 L 41.96875 -18.703125 L 43.03125 -19.703125 L 43.96875 -20.765625 L 45.25 -23.125 L 46.53125 -27.125 L 46.828125 -28.546875 L 46.890625 -33.96875 L 46.671875 -35.40625 L 46.25 -36.6875 L 46.53125 -37.546875 Z M 19.90625 -30.1875 L 19.90625 -34.6875 L 20.5625 -35.96875 L 22.0625 -36.828125 L 26.1875 -36.765625 L 28.265625 -36.265625 L 29.546875 -35.46875 L 29.765625 -34.328125 L 28.6875 -33.96875 L 25.203125 -34.046875 L 23.484375 -33.265625 L 22.125 -28.765625 L 20.5625 -28.90625 Z M 10.640625 2.421875 L 12.0625 1.71875 L 17.84375 1.78125 L 19.203125 1 L 19.90625 -1.21875 L 19.765625 -3.421875 L 19.84375 -4.921875 L 19.765625 -6.28125 L 19.984375 -7.84375 L 19.90625 -10 L 20.484375 -12.28125 L 21.703125 -12.921875 L 23.265625 -12.140625 L 24.125 -10.78125 L 22.765625 -8.0625 L 22.546875 2.421875 L 21.984375 3.78125 L 19.765625 4.5 L 12.0625 4.5625 L 10.640625 3.859375 Z M 10.640625 2.421875 "/></g></g></g><g fill="#ffffff" fill-opacity="1"><g transform="translate(194.774791, 211.698917)"><g><path d="M 5.359375 -2.0625 L 5.203125 -3.5625 L 5.5 -4.921875 L 5.359375 -6.359375 L 5.421875 -15.0625 L 5.28125 -16.34375 L 5.203125 -19.203125 L 5.421875 -20.625 L 5.203125 -23.484375 L 5.421875 -24.84375 L 5.203125 -27.90625 L 5.421875 -29.265625 L 5.28125 -30.6875 L 5.5 -31.96875 L 5.28125 -33.46875 L 5.421875 -34.90625 L 5.359375 -36.265625 L 5.5625 -37.828125 L 5.421875 -39.1875 L 5.203125 -40.609375 L 5.421875 -42.109375 L 5.5625 -43.46875 L 5.140625 -47.171875 L 6.0625 -49.109375 L 8.140625 -49.890625 L 15.5625 -50.03125 L 17.421875 -49.171875 L 18.125 -47.03125 L 18.265625 -43.53125 L 18.125 -41.96875 L 18.34375 -30.828125 L 18.125 -29.328125 L 18.34375 -27.765625 L 18.125 -25.765625 L 18.203125 -22.203125 L 18.0625 -20.703125 L 18.203125 -19.265625 L 18.125 -17.703125 L 18.34375 -16.34375 L 18.265625 -13.703125 L 18.703125 -12.140625 L 20.203125 -11.484375 L 32.765625 -11.34375 L 34.328125 -11.5625 L 35.46875 -10.84375 L 36.40625 -9.28125 L 36.1875 -7.921875 L 36.40625 -6.359375 L 36.265625 -5.0625 L 36.1875 -3.640625 L 36.328125 -2.0625 L 35.546875 -0.78125 L 33.546875 -0.078125 L 8.28125 0.078125 L 6 -0.78125 Z M 20.125 -15.421875 L 20.125 -16.921875 L 19.90625 -18.265625 L 20.125 -19.765625 L 19.984375 -37.25 L 19.84375 -38.75 L 20.125 -40.109375 L 20.125 -43.109375 L 20.703125 -44.53125 L 22.125 -44.46875 L 23.046875 -43.109375 L 22.703125 -37.1875 L 22.90625 -35.765625 L 22.84375 -29.90625 L 23.046875 -26.90625 L 22.84375 -25.484375 L 22.84375 -21.84375 L 23.046875 -20.5625 L 23.046875 -16.703125 L 22.90625 -15.421875 L 22.265625 -13.921875 L 20.765625 -13.84375 Z M 10.78125 2.640625 L 12.78125 1.859375 L 17.84375 1.859375 L 19.0625 1.71875 L 24.203125 2 L 26.265625 1.859375 L 33.1875 2 L 35.90625 1.78125 L 37.546875 1.140625 L 38.25 -0.21875 L 38.109375 -1.640625 L 38.328125 -3.0625 L 38.109375 -4.640625 L 38.96875 -6.140625 L 40.546875 -6.140625 L 41.109375 -4.640625 L 40.96875 2.5 L 40.390625 4 L 38.828125 4.703125 L 26.90625 4.859375 L 25.40625 4.703125 L 23.984375 4.859375 L 11.984375 4.640625 L 10.78125 3.859375 Z M 10.78125 2.640625 "/></g></g></g><g fill="#ffffff" fill-opacity="1"><g transform="translate(233.170757, 211.698917)"><g><path d="M 26.6875 0.859375 L 25.203125 0.71875 L 22.625 0.140625 L 21.0625 0 L 18.984375 -0.71875 L 13.421875 -3.5625 L 11.0625 -5.421875 L 10.28125 -6.359375 L 9.203125 -7.359375 L 8.28125 -8.5 L 7.421875 -9.34375 L 4.140625 -15.84375 L 3.5 -18.5625 L 3.359375 -19.90625 L 3 -21.203125 L 2.78125 -22.703125 L 3 -28.484375 L 4.21875 -33.96875 L 5.28125 -36.6875 L 7.5 -40.46875 L 10.984375 -44.53125 L 13.421875 -46.328125 L 14.703125 -46.96875 L 15.78125 -47.75 L 21.125 -49.75 L 28.6875 -50.8125 L 30.625 -50.75 L 34.765625 -50.03125 L 40.25 -48.328125 L 41.328125 -47.53125 L 43.46875 -46.609375 L 45.109375 -45.46875 L 47.171875 -43.6875 L 49.171875 -41.46875 L 50.75 -39.328125 L 52.109375 -36.6875 L 53.890625 -31.328125 L 54.390625 -28.40625 L 54.609375 -24.84375 L 54.3125 -22.765625 L 54.25 -21.265625 L 53.890625 -19.84375 L 53.8125 -18.5625 L 53.25 -15.84375 L 52.171875 -13.140625 L 49.03125 -8.34375 L 48.03125 -7.359375 L 47.109375 -6.0625 L 45.109375 -4.359375 L 43.75 -3.71875 L 42.6875 -2.859375 L 40.328125 -1.5625 L 34.96875 0.21875 L 30.6875 0.78125 Z M 30.6875 -11.78125 L 32.125 -12.0625 L 33.1875 -12.5625 L 34.46875 -12.921875 L 37.90625 -15.28125 L 38.90625 -16.421875 L 39.328125 -17.484375 L 40.109375 -18.765625 L 40.609375 -20.0625 L 41.1875 -22.703125 L 41.328125 -27.046875 L 41.109375 -28.328125 L 40.46875 -29.6875 L 39.609375 -32.40625 L 36.828125 -35.328125 L 34.609375 -36.90625 L 33.328125 -37.46875 L 32.046875 -37.75 L 28.625 -38.1875 L 26.625 -38.046875 L 23.84375 -37.328125 L 22.90625 -36.96875 L 19.34375 -34.546875 L 17.625 -32.265625 L 17.203125 -30.984375 L 16.625 -29.6875 L 16.421875 -28.328125 L 16.0625 -27.046875 L 16.0625 -22.703125 L 16.625 -20.0625 L 17.265625 -18.765625 L 17.625 -17.625 L 18.625 -16.28125 L 19.5625 -15.28125 L 21.484375 -13.703125 L 22.625 -13.0625 L 25.203125 -11.984375 L 26.765625 -11.78125 Z M 18.125 -23.625 L 18.265625 -25.765625 L 19.0625 -29.828125 L 20.5625 -32.1875 L 21.703125 -33.328125 L 23.984375 -35.046875 L 25.203125 -35.609375 L 26.484375 -35.96875 L 28.40625 -36.046875 L 29.546875 -36.265625 L 31.96875 -35.828125 L 34.40625 -34.46875 L 33.1875 -34.265625 L 31.96875 -34.1875 L 29.90625 -34.046875 L 28.546875 -33.765625 L 27.125 -33.328125 L 25.265625 -32.40625 L 23.765625 -31.125 L 21.90625 -28.90625 L 20.625 -25.203125 L 20.0625 -21.5625 L 20.125 -19.125 L 19.703125 -18.203125 L 18.703125 -20.625 Z M 55.953125 -26.625 L 55.53125 -31.625 L 55.8125 -32.328125 L 56.25 -31.6875 L 57.453125 -27.625 L 57.453125 -26.34375 L 57.953125 -24.84375 L 57.890625 -23.546875 L 57.953125 -21.34375 L 57.671875 -16.34375 L 57.171875 -14.921875 L 56.75 -11.984375 L 54.953125 -8.140625 L 52.609375 -4.421875 L 51.46875 -3.5 L 50.46875 -2.28125 L 48.328125 -0.421875 L 44.46875 1.71875 L 43.46875 2.421875 L 42.046875 2.71875 L 40.046875 3.5 L 34.96875 4.359375 L 29.828125 4.28125 L 26.484375 3.859375 L 25.125 3.359375 L 22.40625 2.78125 L 21.84375 2.0625 L 22.625 1.921875 L 24.203125 2.21875 L 30.125 2.5 L 34.96875 2.140625 L 39.109375 1.140625 L 40.390625 0.640625 L 42.96875 -0.640625 L 44.03125 -1.359375 L 45.46875 -1.921875 L 47.609375 -3.5625 L 49.609375 -5.5625 L 53.171875 -10.34375 L 55.53125 -16.84375 L 55.59375 -18.421875 L 55.953125 -19.90625 L 56.25 -24.046875 Z M 56.3125 -22.90625 L 56.390625 -23.125 L 56.09375 -22.546875 Z M 56.3125 -22.90625 "/></g></g></g><g fill="#ffffff" fill-opacity="1"><g transform="translate(290.407881, 211.698917)"><g><path d="M 20.703125 0.578125 L 17.703125 0.359375 L 16.34375 -0.140625 L 14.78125 -0.359375 L 9.640625 -2.71875 L 8.421875 -3.5 L 6.359375 -5.5625 L 4.5625 -7.78125 L 3.421875 -10.640625 L 3.140625 -11.921875 L 3 -13.484375 L 3.5 -14.984375 L 4.921875 -15.625 L 6.359375 -15.5625 L 7.78125 -15.703125 L 13.203125 -15.5625 L 14.625 -14.984375 L 15.703125 -13.5625 L 16.765625 -12.5625 L 18.0625 -11.78125 L 19.125 -11.28125 L 20.765625 -10.84375 L 22.90625 -10.703125 L 24.90625 -10.78125 L 27.546875 -11.5625 L 28.6875 -12.203125 L 29.828125 -13.203125 L 30.265625 -15.0625 L 29.90625 -16.921875 L 28.90625 -17.765625 L 26.34375 -18.84375 L 24.90625 -18.921875 L 23.625 -19.125 L 17.765625 -19.5625 L 15.203125 -20.125 L 11.140625 -21.484375 L 8.640625 -22.984375 L 6.640625 -24.84375 L 4.859375 -27.1875 L 3.921875 -29.6875 L 3.421875 -31.6875 L 3.359375 -36.46875 L 4.359375 -40.609375 L 5.0625 -41.75 L 5.5625 -43.03125 L 6.5 -43.96875 L 7.28125 -45.1875 L 8.5625 -46.03125 L 9.5625 -46.96875 L 10.984375 -47.828125 L 12.140625 -48.25 L 13.28125 -48.96875 L 14.5625 -49.46875 L 20.203125 -50.609375 L 24.203125 -50.671875 L 25.765625 -50.3125 L 27.046875 -50.171875 L 28.546875 -49.890625 L 32.46875 -48.53125 L 37.046875 -45.390625 L 37.96875 -44.328125 L 38.6875 -43.1875 L 39.609375 -42.046875 L 40.75 -39.46875 L 41.328125 -36.6875 L 40.6875 -35.328125 L 39.328125 -34.46875 L 37.96875 -34.609375 L 36.6875 -34.46875 L 31.96875 -34.609375 L 29.765625 -35.328125 L 27.40625 -37.828125 L 26.34375 -38.6875 L 24.765625 -39.25 L 20.203125 -39.109375 L 18.921875 -38.828125 L 17.921875 -38.40625 L 16.703125 -37.46875 L 15.921875 -36.46875 L 15.703125 -34.609375 L 15.78125 -32.6875 L 16.921875 -31.546875 L 17.984375 -30.984375 L 20.984375 -29.90625 L 28.1875 -28.984375 L 34.046875 -27.546875 L 37.828125 -25.84375 L 39.046875 -24.84375 L 40.75 -22.625 L 42.1875 -19.984375 L 42.546875 -18.625 L 42.75 -17.203125 L 42.6875 -12.78125 L 42.46875 -11.484375 L 42.046875 -10.0625 L 41.46875 -8.78125 L 40.046875 -6.5 L 38.046875 -4.21875 L 35.765625 -2.640625 L 32.046875 -0.640625 L 25.046875 0.71875 L 22.765625 0.78125 Z M 35.546875 -32.765625 L 39.328125 -32.6875 L 40.96875 -32.765625 L 42.46875 -33.546875 L 43.03125 -34.828125 L 43.109375 -36.1875 L 42.609375 -39.109375 L 42.046875 -41.046875 L 42.6875 -40.609375 L 44.390625 -37.96875 L 45.03125 -36.46875 L 45.25 -35.109375 L 45.109375 -33.546875 L 45.1875 -32.1875 L 44.109375 -30.6875 L 41.75 -29.828125 L 36.609375 -29.828125 L 35.40625 -30.046875 L 33.765625 -30.828125 L 33.46875 -32.1875 Z M 17.984375 -35.828125 L 18.984375 -36.6875 L 20.484375 -37.1875 L 21.84375 -37.40625 L 24.046875 -37.328125 L 26.125 -36.828125 L 27.046875 -36.046875 L 26.125 -35.46875 L 22.84375 -34.96875 L 21.484375 -34.609375 L 20.40625 -33.90625 L 18.921875 -33.328125 L 17.921875 -34.125 Z M 15.0625 0.921875 L 16.484375 1.5 L 22.40625 2.421875 L 26.84375 2.421875 L 29.40625 2.140625 L 30.828125 1.5625 L 32.328125 1.21875 L 37.328125 -1.21875 L 38.40625 -2.0625 L 39.328125 -3 L 40.390625 -3.859375 L 41.25 -4.921875 L 42.390625 -6 L 43.25 -7.28125 L 43.609375 -8.421875 L 44.109375 -9.703125 L 44.609375 -11.28125 L 44.53125 -16.703125 L 44.328125 -18.0625 L 44.03125 -19.265625 L 44.109375 -20.125 L 44.6875 -19.703125 L 45.390625 -18.484375 L 46.609375 -14.5625 L 46.75 -13.203125 L 46.609375 -9.0625 L 46.390625 -7.703125 L 45.1875 -5.203125 L 43.6875 -2.78125 L 42.828125 -1.640625 L 39.546875 1.078125 L 38.328125 1.78125 L 32.96875 3.921875 L 31.546875 4.28125 L 30.125 4.359375 L 28.828125 4.640625 L 22.90625 4.421875 L 18.765625 3.5625 L 17.625 2.921875 L 16.0625 2.21875 L 14.921875 1.5 L 14.34375 0.859375 Z M 23.203125 -14.5625 L 20.484375 -14.984375 L 15.0625 -16.703125 L 13.703125 -17.34375 L 11.484375 -18.765625 L 10.984375 -19.40625 L 11.703125 -19.5625 L 14.203125 -18.625 L 18.34375 -17.84375 L 19.765625 -17.84375 L 21.0625 -17.5625 L 25.765625 -17.203125 L 27.765625 -16.34375 L 28.484375 -14.921875 L 27.34375 -14.203125 Z M 23.203125 -14.5625 "/></g></g></g></svg>